<?xml version="1.0" encoding="UTF-8" standalone="no"?>
<!-- Created with Inkscape (http://www.inkscape.org/) -->

<svg
   version="1.1"
   id="svg2"
   width="1250.6667"
   height="985.33331"
   viewBox="0 0 1250.6667 985.33331"
   sodipodi:docname="grogu.ai"
   xmlns:inkscape="http://www.inkscape.org/namespaces/inkscape"
   xmlns:sodipodi="http://sodipodi.sourceforge.net/DTD/sodipodi-0.dtd"
   xmlns="http://www.w3.org/2000/svg"
   xmlns:svg="http://www.w3.org/2000/svg">
  <defs
     id="defs6">
    <clipPath
       clipPathUnits="userSpaceOnUse"
       id="clipPath16">
      <path
         d="M 0,739 H 938 V 0 H 0 Z"
         id="path14" />
    </clipPath>
  </defs>
  <sodipodi:namedview
     id="namedview4"
     pagecolor="#ffffff"
     bordercolor="#000000"
     borderopacity="0.25"
     inkscape:showpageshadow="2"
     inkscape:pageopacity="0.0"
     inkscape:pagecheckerboard="0"
     inkscape:deskcolor="#d1d1d1" />
  <g
     id="g8"
     inkscape:groupmode="layer"
     inkscape:label="grogu"
     transform="matrix(1.3333333,0,0,-1.3333333,0,985.33333)">
    <g
       id="g10">
      <g
         id="g12"
         clip-path="url(#clipPath16)">
        <g
           id="g18"
           transform="translate(890.9766,688.0981)">
          <path
             d="m 0,0 c -0.821,2.11 -1.918,4.063 -3.34,5.799 -2.76,3.368 -7.401,6.883 -14.9,7.34 8.271,3.162 15.084,5.541 18.116,6.376 C 0.384,14.334 0.47,6.889 0,0 m -169.783,-205.251 -17.214,8.814 c -1.385,0.705 -2.907,1.107 -4.46,1.17 -4.127,0.164 -7.382,0.657 -9.766,1.171 -5.062,52.102 -9.732,65.193 -13.361,69.696 0.789,4.87 7.797,17.615 28.892,29.713 64.439,36.963 141.476,76.234 161.22,79.507 1.432,-5.499 -0.042,-18.153 -3.671,-28.863 -1.855,-5.437 0.898,-11.369 6.247,-13.461 2.9,-1.132 6.006,-0.923 8.612,0.345 -40.795,-122.062 -139.422,-145.001 -156.499,-148.092 m 2.954,-47.551 c 0.002,-0.531 -0.044,-1.262 -0.274,-1.723 -1.467,-2.934 -2.734,-6.463 -3.871,-10.792 -1.354,-5.145 1.27,-10.509 6.163,-12.598 0.096,-0.042 0.194,-0.08 0.29,-0.119 -3.13,-11.417 -7.293,-34.149 -7.293,-38.53 0,-7.151 0,-15.756 0.035,-22.558 0.008,-1.527 0.342,-3.036 0.98,-4.422 0.145,-0.319 0.59,-1.287 -0.201,-3.725 -0.023,-0.07 -0.045,-0.14 -0.066,-0.213 -1.078,-3.141 -3.522,-6.655 -6.259,-9.842 l -20.865,30.143 3.108,4.664 c 2.196,3.295 2.577,7.525 0.71,11.016 -1.867,3.486 -5.33,5.663 -9.286,5.663 -0.376,0.02 -9.854,0.587 -66.459,10.575 -53.905,9.519 -90.043,-19.31 -102.478,-31.387 -7.387,1.314 -17.26,2.051 -24.838,2.452 -2.594,9.926 -8.979,17.675 -14.13,22.594 3.999,3.608 14.132,10.222 39.6,19.134 24.369,8.531 53.441,15.91 72.68,20.794 14.099,3.577 21.025,5.362 24.373,6.795 5.922,2.54 11.412,7.2 17.77,12.594 10.177,8.64 21.713,18.432 37.63,22.199 15.648,3.699 25.564,-1.471 30.079,-4.877 2.841,-2.153 6.561,-2.753 9.934,-1.594 0.437,0.146 0.862,0.325 1.27,0.524 0.832,-0.01 2.142,-0.07 4.102,-0.255 0.646,-0.066 1.289,-0.066 1.915,-0.014 0.625,-0.196 1.273,-0.339 1.94,-0.422 l 0.916,-0.116 c 1.54,-0.206 3.194,-0.772 4.852,-3.487 1.976,-3.242 3.08,-7.829 3.602,-12.832 -3.546,-1.778 -5.945,-5.449 -5.929,-9.641 m 6.16,-329.12 c -3.618,-12.664 -39.738,-24.84 -63.013,-29.081 -0.988,-0.178 -1.951,-0.497 -2.85,-0.943 -19.924,-9.887 -285.089,-68.419 -382.736,-40.257 -11.501,3.316 -20.637,11.512 -25.065,22.489 -5.465,13.547 -9.202,31.927 -0.807,49.364 0.858,-0.667 1.791,-1.279 2.809,-1.82 5.003,-2.663 13.477,-4.326 25.428,2.812 24.709,14.775 52.851,60.781 57.402,127.452 1.706,1.751 3.285,3.532 4.625,5.335 18.596,-2.281 65.269,-6.97 120.027,14.6 1.326,-29.277 15.857,-68.376 65.51,-79.937 l 11.932,-6.385 13.653,-7.005 c 0.21,-0.109 0.423,-0.21 0.64,-0.304 61.514,-26.607 135.004,-0.72 138.102,0.391 4.446,1.6 7.323,5.921 7.086,10.638 -0.144,2.858 -1.408,5.453 -3.4,7.312 l 9.569,8.116 c 24.322,-16.295 26.861,-62.574 21.088,-82.777 M -643,-435.566 c 13.992,26.758 25.463,44.634 34.516,56.579 -0.693,-2.121 -1.401,-4.34 -2.122,-6.663 -11.199,-36.054 -3.248,-57.798 2.489,-67.552 4.957,-8.429 11.927,-14.128 19.122,-15.633 1.495,-0.308 3.015,-0.381 4.511,-0.22 -0.263,-0.311 -0.513,-0.58 -0.743,-0.804 -3.408,-3.35 -7.625,-3.092 -11.309,-2.567 -1.264,0.175 -2.218,0.244 -2.78,0.244 -4.748,0 -8.805,-2.61 -10.584,-6.806 -1.824,-4.304 -0.727,-7.874 1.079,-10.704 -1.848,-0.821 -3.658,-1.938 -5.239,-3.521 -3.622,-3.623 -4.567,-8.842 -2.407,-13.3 2.79,-5.761 9.459,-8.183 19.287,-7.04 1.002,0.119 1.975,0.269 2.919,0.454 -9.578,-25.776 -22.047,-31.071 -26.452,-32.151 -31.278,16.654 -26.995,82.961 -22.287,109.684 m -33.518,81.026 c 2.829,1.216 5.068,3.63 6.021,6.712 1.393,4.493 -0.328,9.384 -4.208,12.042 -0.176,0.122 -17.637,12.308 -20.285,32.763 -1.658,12.812 2.687,26.565 12.93,41.004 11.296,-10.271 32.193,-25.656 58,-28.05 0.938,-0.087 1.806,-0.178 2.608,-0.275 -1.215,-2.341 -1.563,-5.115 -0.822,-7.802 1.325,-4.804 5.736,-7.989 10.77,-7.871 13.124,0.52 27.197,-0.007 33.182,-1.146 0.36,-0.545 0.769,-1.065 1.225,-1.554 2.868,-3.081 6.197,-4.27 12.313,-4.343 -15.395,-7.106 -30.494,-16.671 -44.3,-29.476 -4.093,-3.238 -34.1,-27.704 -47.461,-58.677 -9.485,9.509 -21.304,25.73 -19.973,46.673 m -159.744,274.415 c 1.89,-0.483 3.932,-0.451 5.908,0.192 5.272,1.694 8.388,7.123 7.195,12.531 -1.324,5.995 -2.096,12.801 -2.103,17.423 12.18,-4.979 38.974,-19.436 61.309,-32.571 0.968,-0.57 2.017,-0.982 3.113,-1.226 58.368,-12.972 83.61,-32.853 84.745,-39.345 -10.048,-19.298 -10.615,-67.635 -7.817,-94.393 0.432,-4.119 -0.105,-7.26 -1.471,-8.618 -0.934,-0.93 -2.391,-1.196 -3.128,-1.216 -1.132,0.394 -2.323,0.597 -3.527,0.597 h -0.131 c -14.097,-0.207 -54.131,10.76 -89.448,45.647 -26.715,26.391 -44.983,60.194 -54.645,100.979 m 103.332,33.912 3.804,0.852 c 28.118,6.313 84.903,19.054 102.799,-7.214 -7.187,-9.587 -21.7,-29.723 -30.16,-46.761 -11.606,10.32 -30.379,24.077 -52.826,29.702 -15.171,3.801 -40.895,15.009 -64.073,25.908 15.602,-3.301 30.157,-4.775 40.456,-2.487 m 501.488,-455.175 c -16.738,-11.442 -60.913,-3.497 -94.032,6.473 9.308,12.074 13.235,26.737 13.821,29.074 1.228,4.912 -1.146,10.016 -5.693,12.241 -4.549,2.219 -10.034,0.972 -13.16,-3.011 -4.675,-5.953 -9.735,-12.353 -13.206,-16.696 -1.813,-0.926 -3.368,-2.365 -4.427,-4.213 -4.36,-1.726 -13.039,-4.172 -21.396,-0.699 -9.618,4 -17.349,15.379 -22.396,32.934 -0.202,2.827 -0.566,7.385 -1.091,12.364 1.484,-3.385 2.524,-7.784 3.037,-12.982 1.237,-12.542 7.395,-21.276 16.471,-23.372 8.03,-1.852 16.156,2.067 21.19,10.243 10.834,17.59 8.067,53.622 -32.008,102.127 8.507,-3.685 11.868,-6.33 12.173,-6.578 2.701,-2.425 6.458,-3.318 9.964,-2.372 2.073,0.563 3.894,1.719 5.265,3.28 0.181,-0.087 0.375,-0.184 0.585,-0.3 10.308,-5.534 18.853,-12.165 18.933,-12.227 4.534,-3.55 11.024,-2.861 14.752,1.522 3.729,4.378 3.314,10.946 -0.905,14.859 -1.448,1.338 -3.01,3.462 -3.616,4.814 1.216,0.789 4.427,2.348 11.882,3.417 17.749,2.564 32.454,-9.349 33.674,-16.762 0.926,-5.628 -9.273,-9.583 -18.29,-11.256 -5.681,-1.052 -9.506,-6.415 -8.657,-12.127 0.849,-5.715 6.058,-9.74 11.808,-9.09 14.642,1.639 25.306,6.823 31.698,15.41 5.663,7.609 7.49,17.209 5.432,28.532 -3.221,17.712 -13.064,26.128 -20.754,30.073 -1.682,0.863 -3.411,1.593 -5.179,2.205 26.436,0.873 47.742,-9.625 61.801,-19.443 -0.197,-0.307 -0.38,-0.625 -0.548,-0.957 -2.178,-4.294 -1.231,-9.512 2.318,-12.768 11.115,-10.188 40.522,-41.693 43.094,-64.821 3.117,-28.063 -25.051,-61.085 -52.54,-79.894 m -175.364,147.16 c 1.745,0.765 3.285,1.991 4.426,3.588 0.613,-0.067 1.564,-0.241 2.926,-0.678 1.233,-0.391 2.416,-0.783 3.551,-1.167 l -3.062,-0.188 c -2.334,-0.144 -4.468,-1.028 -6.164,-2.425 -0.53,0.335 -1.09,0.629 -1.677,0.87 m 13.319,-39.03 c -0.032,0 -0.065,0 -0.096,0.003 -1.228,0.046 -2.493,0.066 -3.768,0.07 -0.157,-0.004 -0.292,-0.004 -0.431,-0.007 -0.182,0.007 -0.372,0.01 -0.547,0.01 l -2.032,-0.025 v -0.044 c -0.344,0.024 -0.684,0.028 -1.046,0.02 -0.947,-0.027 -1.899,-0.059 -2.86,-0.104 -0.071,-0.004 -0.143,-0.004 -0.214,-0.007 -1.017,-0.049 -2.042,-0.113 -3.068,-0.179 h -0.03 c -0.183,-0.014 -0.363,-0.027 -0.543,-0.049 -0.151,-0.007 -0.302,-0.013 -0.456,-0.024 l -2.127,-0.167 c -0.184,-0.015 -0.365,-0.035 -0.547,-0.06 -0.213,-0.007 -0.43,-0.021 -0.646,-0.039 l -1.964,-0.188 c -4.753,-0.475 -8.471,-3.983 -9.427,-8.412 -10.192,-3.323 -35.994,-9.608 -58.208,-14.46 -11.697,-1.929 -44.596,-6.199 -60.605,-3.537 -8.355,1.395 -11.141,13.319 -12.058,20.249 4.367,3.736 10.11,9.706 12.741,16.965 4.349,12.004 -3.464,20.165 -6.793,23.467 -0.13,0.339 -0.276,0.671 -0.439,0.995 -0.04,0.908 -0.197,1.827 -0.482,2.736 -0.676,2.159 -1.469,4.423 -1.992,5.883 -0.23,2.393 -0.827,4.545 -1.643,6.456 18.984,11.714 66.24,35.128 123.673,21.545 0.651,-2.508 2.194,-4.713 4.36,-6.183 0.559,-1.031 2.26,-5.056 2.91,-16.655 0.234,-4.174 2.858,-7.769 6.622,-9.32 -3.787,-1.656 -6.428,-5.439 -6.428,-9.842 0,-5.928 4.822,-10.732 10.75,-10.732 2.59,0 4.965,0.919 6.819,2.445 0.981,-0.621 2.079,-1.096 3.265,-1.376 2.683,-0.639 7.771,-7.724 12.529,-19.801 -0.263,0.024 -0.529,0.052 -0.794,0.077 -0.156,0.013 -0.308,0.024 -0.461,0.031 -0.135,0.017 -0.269,0.028 -0.406,0.042 -0.11,0.007 -0.222,0.014 -0.332,0.024 -0.906,0.071 -1.827,0.129 -2.772,0.171 -0.152,0.007 -0.302,0.015 -0.454,0.022 m -186.213,1.83 c 0.068,0.329 0.122,0.66 0.159,0.985 l 0.058,-0.011 0.16,0.724 c 0.03,0.126 0.056,0.248 0.08,0.374 0.046,0.153 0.086,0.311 0.124,0.468 l 0.228,0.926 c 0.029,0.126 0.059,0.248 0.085,0.374 0.046,0.15 0.089,0.3 0.13,0.454 l 0.242,0.922 c 0.084,0.314 0.154,0.626 0.208,0.94 l 0.047,-0.011 0.215,0.758 c 0.047,0.161 0.091,0.325 0.131,0.489 0.035,0.105 0.068,0.21 0.1,0.319 l 0.288,0.964 0.002,0.003 c 0.078,0.262 0.147,0.524 0.204,0.787 l 0.028,-0.008 0.266,0.843 c 0.083,0.261 0.157,0.527 0.22,0.793 0.091,0.223 0.174,0.454 0.251,0.687 l 0.238,0.734 c 0.042,0.129 0.082,0.258 0.118,0.388 0.062,0.157 0.119,0.321 0.174,0.485 l 0.183,0.542 c 0.047,0.136 0.091,0.273 0.131,0.409 0.059,0.153 0.115,0.307 0.17,0.465 l 0.151,0.44 c 0.055,0.149 0.103,0.3 0.15,0.45 0.044,0.109 0.084,0.22 0.124,0.328 l 0.123,0.343 c 0.001,0.004 0.054,0.153 0.056,0.153 0.11,0.308 0.206,0.619 0.286,0.926 l 0.04,-0.014 -0.04,0.018 c 0.002,0.004 0.004,0.011 0.006,0.014 0.01,0.024 0.022,0.049 0.034,0.073 l 0.035,-0.014 c 0.055,0.151 0.105,0.297 0.154,0.444 0.04,0.098 0.08,0.199 0.119,0.3 0.003,0.014 0.038,0.105 0.043,0.116 0.631,1.68 0.813,3.42 0.605,5.087 0.342,0.538 0.643,1.114 0.894,1.725 l 0.395,0.961 c 0.012,-0.046 0.023,-0.091 0.033,-0.137 0.068,-0.272 0.148,-0.545 0.238,-0.81 0.075,-0.224 0.155,-0.444 0.244,-0.66 -0.069,-1.048 0.013,-2.11 0.257,-3.159 0.51,-2.179 1.68,-4.115 3.312,-5.572 -4.771,-6.773 -8.61,-12.217 -11.629,-16.465 z m -31.174,317.472 c 1.812,0.444 3.478,1.352 4.834,2.634 25.074,23.729 49.536,34.58 49.52,34.58 0.085,0.034 0.183,0.074 0.277,0.116 0.259,0.111 0.514,0.23 0.765,0.363 16.048,8.405 32.989,14.837 50.35,19.117 0.166,0.042 0.332,0.087 0.496,0.136 130.515,38.911 180.229,-32.844 182.252,-35.872 2.305,-3.522 6.466,-5.377 10.615,-4.735 4.161,0.64 7.563,3.652 8.701,7.704 4.84,17.234 55.324,42.796 115.151,42.796 46.982,0 102.948,4.284 126.108,6.243 -12.673,-5.865 -26.712,-12.989 -40.291,-20.165 -3.419,3.791 -9.139,4.692 -13.601,1.929 -14.095,-8.71 -26.766,-15.889 -37.664,-21.336 -43.658,-21.831 -100.056,-70.989 -102.435,-73.071 -1.868,-1.635 -3.111,-3.864 -3.518,-6.313 0,0 -0.676,-4.049 -1.613,-10.383 -0.697,-4.709 1.794,-9.317 6.119,-11.312 3.461,-1.597 7.442,-1.213 10.497,0.842 7.558,-8.15 12.385,-31.016 14.329,-50.695 -3.719,-0.27 -7.157,-2.47 -8.881,-5.999 -1.319,-2.701 -4.082,-4.133 -11.646,-7.532 -9.981,-4.493 -23.508,-10.575 -39.276,-26.677 l -69.069,-23.054 c -0.109,-0.035 -0.22,-0.07 -0.328,-0.112 v 0.003 c -5.584,-2.019 -10.854,-3.678 -15.662,-4.922 -32.09,-8.322 -47.615,-16.374 -54.831,-22.908 h -76.629 c -24.191,0 -68.044,2.733 -79.693,3.487 -13.075,8.105 -49.62,22.922 -70.183,31.006 -10.486,46.699 -6.41,89.114 12.14,126.153 0.797,1.593 1.167,3.315 1.134,5.02 1.429,0.902 2.664,2.156 3.564,3.714 2.442,4.241 5.092,8.423 7.872,12.423 0.201,0.286 0.388,0.587 0.559,0.895 1.087,1.945 2.109,3.811 3.085,5.589 7.747,14.135 10.771,18.831 16.952,20.336 M 10.457,42.66 c -2.479,1.139 -8.574,2.942 -15.54,-2.341 -12.526,-3.217 -39.605,-14.565 -49.652,-19.026 -11.619,-1.058 -78.672,-6.945 -133.178,-6.945 -52.812,0 -105.526,-18.83 -126.902,-43.048 -22.406,22.883 -82.38,66.032 -195.704,32.333 -18.828,-4.664 -37.19,-11.63 -54.592,-20.713 -2.768,-1.237 -20.551,-9.489 -41.574,-26.356 -24.023,42.161 -93.156,26.649 -127.14,19.019 l -3.762,-0.842 c -20.962,-4.667 -80.62,15.798 -113.288,29.797 -3.314,1.415 -7.124,1.076 -10.135,-0.908 -3.011,-1.984 -4.825,-5.349 -4.825,-8.958 0,-101.461 37.596,-159.894 69.135,-191.047 35.017,-34.59 76.088,-49.214 98.39,-51.503 -14.45,-19.682 -20.484,-39.228 -17.923,-58.226 2.378,-17.643 11.761,-30.678 19.329,-38.587 -7.677,-42.241 22.956,-70.945 35.126,-80.491 -0.339,-0.648 -0.672,-1.254 -1.012,-1.908 -0.483,-0.933 -0.83,-1.932 -1.023,-2.963 -0.76,-4.021 -16.062,-88.267 20.219,-124.599 -19.427,-22.454 -23.257,-51.829 -10.645,-83.091 6.915,-17.139 21.139,-29.929 39.025,-35.086 20.329,-5.862 46.966,-8.269 76.887,-8.269 120.881,0.007 294.987,39.341 319.685,49.2 14.181,2.68 70.315,15.04 78.613,44.078 7.511,26.289 5.336,87.218 -33.727,108.92 -0.852,0.474 -1.764,0.806 -2.703,1.031 12.868,17.84 21.17,38.209 18.888,58.744 -1.376,12.393 -7.404,25.223 -14.827,36.844 0.014,0.012 0.031,0.02 0.046,0.031 1.705,1.334 16.652,13.349 21.608,27.861 0.131,0.346 0.244,0.702 0.339,1.062 1.729,5.67 1.752,11.236 0.082,16.277 -0.027,6.407 -0.027,14.016 -0.033,20.217 0.249,4.032 5.098,29.796 7.308,35.687 2.594,6.914 8.566,40.064 -2.068,60.124 45.895,14.663 143.963,63.675 166.371,217.728 0.035,0.237 0.061,0.478 0.08,0.719 2.989,38.856 -7.086,43.492 -10.878,45.235"
             style="fill:#000000;fill-opacity:1;fill-rule:nonzero;stroke:none"
             id="path20" />
        </g>
        <g
           id="g22"
           transform="translate(466.1748,383.5146)">
          <path
             d="m 0,0 c 0,0 18.685,-12.146 17.781,-29.951 0,0 30.24,-0.915 37.921,-3.993 0,0 -4.779,11.98 6.818,16.971 11.596,4.993 118.17,52.121 120.334,58.965 2.163,6.844 83.755,26.867 85.888,9.7 2.133,-17.166 -28.483,-40.42 -28.483,-40.42 0,0 -13.977,-4.793 -5.99,-19.388 7.986,-14.597 30.044,-36.155 29.748,-37.898 -0.297,-1.741 -0.297,19.284 -0.297,34.034 0,3.577 5.241,31.869 7.987,39.188 2.745,7.318 10.506,57.784 -14.839,61.171 -25.345,3.386 -11.035,-3.769 -11.035,-3.769 0,0 -14.476,17.078 -43.013,10.328 C 174.284,88.188 158.186,64.935 145.665,59.568 133.144,54.202 -0.779,28.078 0,0"
             style="fill:#a88568;fill-opacity:1;fill-rule:nonzero;stroke:none"
             id="path24" />
        </g>
        <g
           id="g26"
           transform="translate(477.6802,272.8701)">
          <path
             d="m 0,0 c 0,0 -11.521,-71.389 57.742,-86.53 l 13.047,-6.989 47.272,-24.252 c 0,0 67.888,9.152 82.239,-18.676 14.351,-27.829 -3.535,-42.14 -3.535,-42.14 0,0 18.16,-16.14 -5.23,-27.745 -21.585,-10.71 -289.301,-70.129 -390.48,-40.957 -14.564,4.199 -26.372,14.731 -32.044,28.789 -7.655,18.975 -13.113,48.553 10.393,73.899 0,0 1.231,-22.421 21.481,-10.316 20.25,12.105 48.869,55.034 52.447,123.005 0,0 9.756,9.234 8.456,11.772 C -139.514,-17.603 -75.131,-36.059 0,0"
             style="fill:#a88568;fill-opacity:1;fill-rule:nonzero;stroke:none"
             id="path28" />
        </g>
        <g
           id="g30"
           transform="translate(483.9561,273.502)">
          <path
             d="m 0,0 c 0,0 24.138,6.018 27.716,-30.256 3.577,-36.273 54.565,-0.499 -13.858,81.781 l -17.79,-1.09 c 0,0 -9.285,30.734 14.759,23.067 24.044,-7.667 31.198,-14.399 31.198,-14.399 0,0 2.413,8.152 13.728,2.076 11.314,-6.075 20.466,-13.231 20.466,-13.231 0,0 -23.711,21.367 13.977,26.782 37.688,5.416 71.592,-39.41 18.866,-49.194 0,0 -31.387,-25.883 -26.853,-38.404 4.534,-12.521 -15.142,-58.07 -15.142,-58.07 0,0 -44.717,-26 -62.605,38.394 0,0 -1.77,25.736 -4.462,32.544"
             style="fill:#a88568;fill-opacity:1;fill-rule:nonzero;stroke:none"
             id="path32" />
        </g>
        <g
           id="g34"
           transform="translate(322.541,346.7002)">
          <path
             d="m 0,0 c 0,0 62.849,50.449 145.761,28.698 0,0 4.018,-0.287 4.018,-7.441 C 149.779,14.102 49.336,-14.102 0,0"
             style="fill:#30220f;fill-opacity:1;fill-rule:nonzero;stroke:none"
             id="path36" />
        </g>
        <g
           id="g38"
           transform="translate(411.5039,260.6338)">
          <path
             d="M 0,0 C 0,0 67.959,14.828 66.176,18.146 64.394,21.465 78.703,121.633 53.661,107.323 28.619,93.014 -28.287,38.631 -28.287,38.631 Z"
             style="fill:#392c18;fill-opacity:1;fill-rule:nonzero;stroke:none"
             id="path40" />
        </g>
        <g
           id="g42"
           transform="translate(698.4468,482.4346)">
          <path
             d="m 0,0 20.965,-10.732 c 0,0 153.58,17.886 182.2,214.645 0,0 3.577,46.506 -10.733,32.197 -14.309,-14.31 -5.366,-23.253 -5.366,-23.253 0,0 21.465,-78.704 -71.548,-157.407 C 115.518,55.45 77.663,16.099 0,0"
             style="fill:#3ad531;fill-opacity:1;fill-rule:nonzero;stroke:none"
             id="path44" />
        </g>
        <g
           id="g46"
           transform="translate(535.4219,423.2461)">
          <path
             d="m 0,0 c 0,0 90.062,38.68 90.395,70.398 0.333,31.719 9.401,65.312 20.965,66.403 11.564,1.091 21.964,-59.726 14.975,-74.035 C 119.347,48.456 99.13,53.051 71.676,23.923 Z"
             style="fill:#0b4409;fill-opacity:1;fill-rule:nonzero;stroke:none"
             id="path48" />
        </g>
        <g
           id="g50"
           transform="translate(577.5796,641.0889)">
          <path
             d="m 0,0 c 0,0 -66.99,102.527 -247.109,20.231 0,0 -145.801,-63.177 -104.827,-229.249 0,0 67.514,-26.301 75.709,-33.582 0,0 54.701,-3.702 83.32,-3.702 h 81.502 c 0,0 4.357,10.731 52.652,23.251 48.295,12.522 116.266,55.453 116.266,80.495 0,25.042 7.155,67.971 7.155,67.971 0,0 57.239,50.084 100.168,71.549 42.929,21.464 96.591,60.816 96.591,60.816 0,0 -75.126,-7.155 -135.943,-7.155 C 64.668,50.625 6.88,24.501 0,0"
             style="fill:#3ad531;fill-opacity:1;fill-rule:nonzero;stroke:none"
             id="path52" />
        </g>
        <g
           id="g54"
           transform="translate(57.3384,618.377)">
          <path
             d="m 0,0 c 0,0 -7.155,32.196 3.578,32.196 10.732,0 71.548,-35.774 71.548,-35.774 0,0 60.816,-21.464 67.971,-50.084 7.155,-28.619 29.202,-113.723 -1.497,-114.1 -30.7,-0.378 -163.064,42.552 -163.064,232.156 0,0 87.647,-37.564 119.843,-30.409 32.197,7.155 103.746,25.042 121.633,-17.887 0,0 -34.53,-44.012 -38.729,-64.935 0,0 -25.498,29.979 -59.567,38.513 C 87.647,-1.789 5.366,41.14 5.366,41.14 5.366,41.14 -26.831,62.604 0,0"
             style="fill:#3ad531;fill-opacity:1;fill-rule:nonzero;stroke:none"
             id="path56" />
        </g>
        <g
           id="g58"
           transform="translate(466.3301,435.207)">
          <path
             d="M 0,0 C 0,0 -4.742,83.002 38.187,93.734 81.116,104.466 123.795,80.248 107.822,17.231 107.822,17.231 29.784,-29.34 0,0"
             style="fill:#000000;fill-opacity:1;fill-rule:nonzero;stroke:none"
             id="path60" />
        </g>
        <g
           id="g62"
           transform="translate(512.4292,487.75)">
          <path
             d="m 0,0 c -4.932,-11.319 -14.988,-17.855 -22.459,-14.6 -7.472,3.256 -9.531,15.072 -4.599,26.39 4.933,11.318 14.988,17.855 22.459,14.599 C 2.873,23.133 4.932,11.318 0,0"
             style="fill:#ffffff;fill-opacity:1;fill-rule:nonzero;stroke:none"
             id="path64" />
        </g>
        <g
           id="g66"
           transform="translate(511.6719,478.8574)">
          <path
             d="M 0,0 C 0,3.951 3.203,7.154 7.155,7.154 11.106,7.154 14.31,3.951 14.31,0 14.31,-3.952 11.106,-7.155 7.155,-7.155 3.203,-7.155 0,-3.952 0,0"
             style="fill:#ffffff;fill-opacity:1;fill-rule:nonzero;stroke:none"
             id="path68" />
        </g>
        <g
           id="g70"
           transform="translate(486.6299,446.6602)">
          <path
             d="M 0,0 C 0,0 35.774,-7.155 53.661,3.577 71.548,14.31 60.816,-17.887 14.31,-14.31 c 0,0 -25.042,3.578 -14.31,14.31"
             style="fill:#ffffff;fill-opacity:1;fill-rule:nonzero;stroke:none"
             id="path72" />
        </g>
        <g
           id="g74"
           transform="translate(351.0205,425.5068)">
          <path
             d="m 0,0 c 0,0 -68.793,-23.432 -86.436,16.748 -17.642,40.18 -3.333,93.259 34.23,81.028 C -14.643,85.547 3.91,21.775 0,0"
             style="fill:#000000;fill-opacity:1;fill-rule:nonzero;stroke:none"
             id="path76" />
        </g>
        <g
           id="g78"
           transform="translate(297.3789,490.6475)">
          <path
             d="m 0,0 c 0,-12.439 -7.341,-22.522 -16.397,-22.522 -9.056,0 -16.397,10.083 -16.397,22.522 0,12.438 7.341,22.522 16.397,22.522 C -7.341,22.522 0,12.438 0,0"
             style="fill:#ffffff;fill-opacity:1;fill-rule:nonzero;stroke:none"
             id="path80" />
        </g>
        <g
           id="g82"
           transform="translate(293.4487,473.4912)">
          <path
             d="M 0,0 C 0,2.963 2.402,5.366 5.366,5.366 8.33,5.366 10.732,2.963 10.732,0 10.732,-2.964 8.33,-5.366 5.366,-5.366 2.402,-5.366 0,-2.964 0,0"
             style="fill:#ffffff;fill-opacity:1;fill-rule:nonzero;stroke:none"
             id="path84" />
        </g>
        <g
           id="g86"
           transform="translate(279.1392,439.5049)">
          <path
             d="m 0,0 c 0.624,-6.095 26.398,-31.139 57.239,-3.577 0,0 -28.62,-7.154 -44.611,6.506 C 9.921,5.24 7.594,8.098 4.068,7.608 0.919,7.172 -1.797,5.392 0,0"
             style="fill:#ffffff;fill-opacity:1;fill-rule:nonzero;stroke:none"
             id="path88" />
        </g>
        <g
           id="g90"
           transform="translate(239.7871,575.4473)">
          <path
             d="M 0,0 C 0,0 0,-28.619 32.197,-14.31 64.394,0 71.549,50.084 46.507,50.084 21.465,50.084 21.465,32.197 0,0"
             style="fill:#ffffff;fill-opacity:1;fill-rule:nonzero;stroke:none"
             id="path92" />
        </g>
        <g
           id="g94"
           transform="translate(404.0029,403.4062)">
          <path
             d="m 0,0 c -14.666,0 -25.224,3.856 -25.952,4.129 -1.848,0.695 -2.782,2.753 -2.092,4.601 0.69,1.848 2.752,2.795 4.599,2.1 0.271,-0.098 27.574,-9.975 54.388,3.427 1.773,0.877 3.916,0.164 4.8,-1.6 0.884,-1.767 0.168,-3.916 -1.6,-4.801 C 22.065,1.82 10.065,0 0,0"
             style="fill:#000000;fill-opacity:1;fill-rule:nonzero;stroke:none"
             id="path96" />
        </g>
        <g
           id="g98"
           transform="translate(375.7314,557.1309)">
          <path
             d="M 0,0 C 0,0 24.624,10.303 51.663,0 51.663,0 28.621,13.881 0,0"
             style="fill:#000000;fill-opacity:1;fill-rule:nonzero;stroke:none"
             id="path100" />
        </g>
        <g
           id="g102"
           transform="translate(364.9971,602.7227)">
          <path
             d="M 0,0 C 0,0 42.628,17.806 89.436,0 89.436,0 49.547,23.989 0,0"
             style="fill:#000000;fill-opacity:1;fill-rule:nonzero;stroke:none"
             id="path104" />
        </g>
        <g
           id="g106"
           transform="translate(239.7871,432.0713)">
          <path
             d="m 0,0 c 0,0 -53.661,132.644 82.281,214.925 0,0 44.718,35.316 132.365,40.017 0,0 -92.373,13.993 -175.868,-62.202 C -44.718,116.546 -8.943,5.087 0,0"
             style="fill:#ffffff;fill-opacity:1;fill-rule:nonzero;stroke:none"
             id="path108" />
        </g>
        <g
           id="g110"
           transform="translate(646.7817,560.0469)">
          <path
             d="m 0,0 c 0,0 18.387,-23.951 14.976,-74.035 l 10.898,-3.577 C 25.874,-77.612 24.21,-8.245 0,0"
             style="fill:#ffffff;fill-opacity:1;fill-rule:nonzero;stroke:none"
             id="path112" />
        </g>
        <g
           id="g114"
           transform="translate(132.4644,614.7988)">
          <path
             d="m 0,0 c 0,0 56.49,-27.872 65.808,-51.499 9.318,-23.627 12.896,-88.021 12.896,-88.021 0,0 0.665,-20.639 -10.4,-22.84 -11.065,-2.202 19.967,-9.356 16.972,19.263 -2.995,28.619 -1.368,73.282 6.762,88.514 C 100.168,-39.352 64.394,-14.31 0,0"
             style="fill:#0b4409;fill-opacity:1;fill-rule:nonzero;stroke:none"
             id="path116" />
        </g>
        <g
           id="g118"
           transform="translate(679.7275,486.0117)">
          <path
             d="m 0,0 c 0,0 -6.156,67.112 -11.98,71.119 -5.824,4.007 -1.332,26.36 32.197,45.592 33.528,19.231 162.315,90.78 173.047,80.048 10.733,-10.733 0,-42.181 0,-42.181 0,0 25.042,56.49 -7.155,49.336 -32.196,-7.155 -135.942,-67.972 -135.942,-67.972 0,0 89.436,67.972 109.112,76.915 19.676,8.944 48.295,19.676 51.872,19.676 3.578,0 6.989,-140.61 -82.363,-197.304 C 39.435,-21.465 0,0 0,0"
             style="fill:#0b4409;fill-opacity:1;fill-rule:nonzero;stroke:none"
             id="path120" />
        </g>
        <g
           id="g122"
           transform="translate(493.1899,284.1895)">
          <path
             d="m 0,0 c -16.083,0 -35.813,-3.495 -42.334,-5.668 -3.004,-1.002 -5.166,-1.442 -6.724,-1.442 -4.008,0 -4.008,2.921 -4.007,6.724 10e-4,3.667 6.892,4.228 11.109,4.228 1.859,0 3.199,-0.11 3.199,-0.11 -26.952,7.871 -8.783,8.511 -2.147,8.511 1.019,0 1.767,-0.015 2.036,-0.021 -0.916,0.035 -7.305,0.519 -10.621,7.152 -3.578,7.154 32.197,17.887 46.506,17.887 14.31,0 25.042,-42.929 25.042,-42.929 C 19.251,-1.457 10.387,0 0,0 M 25.53,-4.801 C 23.625,2.82 13.295,40.838 -2.983,40.838 c -12.124,0 -43.874,-8.191 -49.282,-16.941 -1.243,-2.01 -1.393,-4.185 -0.424,-6.124 0.497,-0.993 1.046,-1.877 1.633,-2.667 -3.616,-0.748 -5.222,-2.133 -5.546,-4.396 -0.299,-2.095 0.614,-3.758 3.441,-5.421 -2.711,-1.553 -3.482,-3.716 -3.482,-5.674 -10e-4,-2.21 -10e-4,-4.297 0.774,-6.162 0.643,-1.547 2.382,-4.141 6.811,-4.141 2.032,0 4.528,0.517 7.855,1.625 5.742,1.915 24.954,5.486 41.203,5.486 15.186,0 18.445,-3.12 19.083,-4.075 0.681,-1.023 1.812,-1.594 2.978,-1.594 0.485,0 0.977,0.099 1.445,0.307 1.592,0.703 2.446,2.45 2.024,4.138"
             style="fill:#000000;fill-opacity:1;fill-rule:nonzero;stroke:none"
             id="path124" />
        </g>
        <g
           id="g126"
           transform="translate(307.4712,278.9375)">
          <path
             d="m 0,0 c -0.609,-0.106 -1.174,-0.157 -1.703,-0.157 -13.748,0 -1.097,34.66 1.531,41.495 0.058,-0.003 0.108,-0.038 0.167,-0.038 0.564,0 1.794,0.145 2.739,1.287 0.431,0.272 1.233,0.729 1.904,1.111 3.605,2.054 9.685,5.531 12.511,9.969 2.797,-1.738 4.603,-7.577 4.603,-7.577 0,0 -7.155,-7.154 -3.578,-7.154 3.578,0 7.155,-3.579 7.155,-3.579 C 25.329,35.357 0.498,0.086 0,0 m 8.581,63.171 c 0.03,-10e-4 0.057,-0.009 0.082,-0.025 0,0 0.718,1.343 1.963,1.343 1.011,0 2.369,-0.885 3.971,-4.09 0.453,-0.905 0.546,-1.809 0.391,-2.702 C 13.577,57.555 11.73,56.898 9.907,54.691 6.935,51.094 3.22,48.453 0.896,46.997 2.864,51.799 7.471,63.171 8.581,63.171 M 22.444,41.562 c 0.568,0.667 1.21,1.372 1.837,1.999 0.936,0.935 1.279,2.31 0.892,3.575 -0.622,2.035 -2.73,7.767 -6.659,9.825 0.316,1.595 0.164,3.275 -0.718,5.039 -0.75,1.5 -3.033,6.066 -7.17,6.066 -1.719,0 -3.116,-0.822 -4.08,-1.822 -1.838,-1.192 -3.717,-5.081 -8.723,-17.312 -0.41,-1.004 -0.73,-1.787 -0.914,-2.217 -0.172,-0.307 -0.308,-0.633 -0.383,-0.934 -0.192,-0.782 -0.032,-1.586 0.289,-2.319 -2.505,-6.258 -12.776,-33.47 -6.161,-43.278 1.729,-2.564 4.372,-3.919 7.643,-3.919 0.737,0 1.516,0.071 2.316,0.21 1.958,0.34 1.958,0.34 27.641,36.824 1.002,1.422 0.835,3.358 -0.395,4.589 -0.328,0.327 -2.486,2.418 -5.415,3.674"
             style="fill:#000000;fill-opacity:1;fill-rule:nonzero;stroke:none"
             id="path128" />
        </g>
        <g
           id="g130"
           transform="translate(454.4331,287.9219)">
          <path
             d="M 0,0 C 0,0 -14.307,1.165 -14.309,-4.118 -14.31,-9.4 -14.31,-12.979 -3.578,-9.4 c 10.733,3.577 57.239,10.731 64.394,0 0,0 -10.732,42.928 -25.042,42.928 -14.31,0 -50.084,-10.732 -46.506,-17.886 C -7.155,8.486 0,8.486 0,8.486 0,8.486 -32.197,9.401 0,0"
             style="fill:#3ad531;fill-opacity:1;fill-rule:nonzero;stroke:none"
             id="path132" />
        </g>
        <g
           id="g134"
           transform="translate(307.4712,278.9375)">
          <path
             d="m 0,0 c 0.498,0.086 25.329,35.357 25.329,35.357 0,0 -3.577,3.579 -7.155,3.579 -3.577,0 3.578,7.154 3.578,7.154 0,0 -3.865,12.646 -9.087,6.323 C 7.442,46.09 0.287,42.513 0.287,42.513 0.287,42.513 -18.174,-3.162 0,0"
             style="fill:#3ad531;fill-opacity:1;fill-rule:nonzero;stroke:none"
             id="path136" />
        </g>
        <g
           id="g138"
           transform="translate(316.1343,342.083)">
          <path
             d="M 0,0 C -1.221,0.832 -8.95,-19.385 -8.663,-18.22 -8.376,-17.056 9.511,-9.9 5.934,-2.746 2.356,4.409 0,0 0,0"
             style="fill:#3ad531;fill-opacity:1;fill-rule:nonzero;stroke:none"
             id="path140" />
        </g>
        <g
           id="g142"
           transform="translate(322.541,346.7002)">
          <path
             d="m 0,0 c 0,0 6.682,-3.785 6.682,-10.94 0,0 3.577,-9.581 3.577,-11.946 0,-2.364 9.757,-6.773 6.668,-15.301 -3.09,-8.528 -13.823,-15.682 -13.823,-15.682 0,0 0,-32.197 21.465,-35.775 21.465,-3.577 64.394,3.578 64.394,3.578 l 54.671,94.676 -1.01,12.647 C 142.624,21.257 138.204,5.574 0,0"
             style="fill:#725730;fill-opacity:1;fill-rule:nonzero;stroke:none"
             id="path144" />
        </g>
        <g
           id="g146"
           transform="translate(551.0234,202.5635)">
          <path
             d="m 0,0 c -2.026,-3.063 17.887,22.296 17.887,22.296 0,0 -7.155,-28.619 -25.042,-35.775 0,0 89.621,-33.194 121.725,-11.231 32.104,21.964 60.724,57.738 57.146,89.936 -3.577,32.196 -46.506,71.547 -46.506,71.547 l 17.887,-3.577 c 0,0 -66.977,78.703 -158.699,14.31 0,0 -5.605,-12.355 13.048,-3.494 18.653,8.86 65.159,23.17 72.314,-16.182 7.155,-39.351 -48.129,-31.129 -48.129,-31.129 0,0 0.624,-23.101 -14.975,-26.394 C 6.656,70.307 5.366,8.111 0,0"
             style="fill:#725730;fill-opacity:1;fill-rule:nonzero;stroke:none"
             id="path148" />
        </g>
        <g
           id="g150"
           transform="translate(548.4692,179.3516)">
          <path
             d="m 0,0 c 0,0 34.751,-29.618 38.329,-29.618 3.577,0 -7.155,-10.733 -7.155,-10.733 0,0 55.575,20.384 67.139,8.404 11.564,-11.981 52.715,-37.272 -17.945,-60.401 0,0 58.402,7.239 40.378,-20.465 0,0 64.257,11.647 71.412,36.689 7.154,25.042 3.577,78.703 -28.619,96.59 h -6.573 l -27.413,-23.253 14.309,-3.577 c 0,0 -83.811,-30.2 -143.862,6.364"
             style="fill:#725730;fill-opacity:1;fill-rule:nonzero;stroke:none"
             id="path152" />
        </g>
        <g
           id="g154"
           transform="translate(440.123,136.4229)">
          <path
             d="m 0,0 43.833,29.451 c 0,0 -65.297,-1.831 -68.875,-1.831 C -28.619,27.62 -3.577,16.14 0,14.726 3.578,13.311 0,0 0,0"
             style="fill:#725730;fill-opacity:1;fill-rule:nonzero;stroke:none"
             id="path156" />
        </g>
        <g
           id="g158"
           transform="translate(472.3198,142.5791)">
          <path
             d="m 0,0 -28.619,-28.62 c 0,0 53.661,25.042 28.619,28.62"
             style="fill:#725730;fill-opacity:1;fill-rule:nonzero;stroke:none"
             id="path160" />
        </g>
        <g
           id="g162"
           transform="translate(723.043,380.5195)">
          <path
             d="M 0,0 C 3.274,1.747 3.274,33.943 10.429,48.254 17.584,62.563 -3.88,84.027 -3.88,84.027 c 0,0 -1.165,-7.154 -7.738,0 -6.572,7.156 -31.364,10.733 -40.433,0 -3.496,-4.136 -8.434,-8.981 -13.616,-14.105 -8.241,0.324 -19.456,2.421 -45.536,-7.359 0,0 33.816,3.562 25.851,-14.317 -10e-4,-0.004 -0.002,-0.006 -0.003,-0.01 -0.773,-1.096 -1.506,-2.184 -2.137,-3.249 -7.613,-12.832 -141.031,-42.45 -113.674,-75.936 0,0 36.301,43.428 97.118,32.696 60.816,-10.732 67.971,-10.732 67.971,-10.732 l -7.155,-10.733 32.197,-46.507 c 0,0 25.042,19.593 17.887,34.839 -7.155,15.245 -25.042,36.71 -25.042,36.71 0,0 14.916,-7.071 18.19,-5.324"
             style="fill:#725730;fill-opacity:1;fill-rule:nonzero;stroke:none"
             id="path164" />
        </g>
        <g
           id="g166"
           transform="translate(322.541,272.8701)">
          <path
             d="m 0,0 c 0,0 -7.628,-45.349 -18.36,-43.102 -10.732,2.247 -27.122,25.846 -13.561,69.497 13.561,43.65 20.466,44.162 20.466,44.162 0,0 -21.797,11.794 -73.378,-87.372 0,0 -19.385,-102.744 30.699,-124.208 0,0 34.163,-1.956 46.595,71.464 0,0 -9.032,-3.369 -10.821,-11.48 -1.789,-8.111 -23.253,-8.111 -19.676,-4.534 3.578,3.577 14.31,2.329 14.31,6.53 0,4.202 -10.732,11.356 -7.155,11.356 3.577,0 40.298,-11.3 30.881,67.687"
             style="fill:#a88568;fill-opacity:1;fill-rule:nonzero;stroke:none"
             id="path168" />
        </g>
        <g
           id="g170"
           transform="translate(458.0937,380.8428)">
          <path
             d="m 0,0 c 0,0 -102.248,19.013 -169.221,-43.443 0,0 -41.93,-32.505 -49.086,-68.946 0,0 -44.509,28.979 -34.776,74.973 h 5.242 c 0,0 -55.492,37.184 -2.246,98.828 0,0 25.416,-30.343 59.901,-33.539 34.484,-3.196 11.141,-15.908 11.141,-15.908 0,0 43.676,1.73 42.453,-5.3 -1.222,-7.03 62.675,10.025 139.838,1.497 z"
             style="fill:#a88568;fill-opacity:1;fill-rule:nonzero;stroke:none"
             id="path172" />
        </g>
        <g
           id="g174"
           transform="translate(309.9316,264.8398)">
          <path
             d="m 0,0 c 0.028,0.005 0.051,0.01 0.079,0.015 -2.014,-8.917 -4.55,-17.246 -6.719,-22.024 -3.145,3.791 -6.779,11.695 -7.053,24.023 C -9.718,-0.092 -4.984,-0.87 0,0"
             style="fill:#2b2112;fill-opacity:1;fill-rule:nonzero;stroke:none"
             id="path176" />
        </g>
        <g
           id="g178"
           transform="translate(517.3784,264.3682)">
          <path
             d="M 0,0 C 1.034,0.154 2.039,0.42 3,0.794 5.363,-7.787 5.364,-13.799 4.984,-17.237 4.933,-17.691 4.875,-18.121 4.809,-18.533 3.984,-11.427 2.375,-5.24 0,0"
             style="fill:#2b2112;fill-opacity:1;fill-rule:nonzero;stroke:none"
             id="path180" />
        </g>
      </g>
    </g>
  </g>
</svg>
